REM DIRINDEX 1\6,1\2\7,1\2\8,1\2\9,1\3\10,1\3\11,1\4\12,1\4\13,1\4\14,1\5\15,1\5\16,1\5\17
REM DIRNAME folder01,folder02,folder03,folder04,folder05,folder06,folder07,folder08,folder09,folder10,folder11,folder12,folder13,folder14,folder15,folder16,folder17
TITLE ""
FILE "P2Q_t_0511-0528.mp3" MP3
  TRACK 01 AUDIO
    TITLE "10:cjc040_2674"
    INDEX 01 00:00:00
  TRACK 02 AUDIO
    TITLE "0:"
    INDEX 01 00:01:05
  TRACK 03 AUDIO
    TITLE "11:cjc040_2675"
    INDEX 01 00:01:58
  TRACK 04 AUDIO
    TITLE "0:"
    INDEX 01 00:02:71
  TRACK 05 AUDIO
    TITLE "10:cjc040_2676"
    INDEX 01 00:03:51
  TRACK 06 AUDIO
    TITLE "0:"
    INDEX 01 00:04:68
  TRACK 07 AUDIO
    TITLE "11:cjc040_2677"
    INDEX 01 00:05:50
  TRACK 08 AUDIO
    TITLE "0:"
    INDEX 01 00:06:63
  TRACK 09 AUDIO
    TITLE "10:cjc040_2678"
    INDEX 01 00:07:45
  TRACK 10 AUDIO
    TITLE "0:"
    INDEX 01 00:08:44
  TRACK 11 AUDIO
    TITLE "11:cjc040_2679"
    INDEX 01 00:09:24
  TRACK 12 AUDIO
    TITLE "0:"
    INDEX 01 00:12:48
  TRACK 13 AUDIO
    TITLE "10:cjc040_2680"
    INDEX 01 00:13:26
  TRACK 14 AUDIO
    TITLE "0:"
    INDEX 01 00:14:51
  TRACK 15 AUDIO
    TITLE "11:cjc040_2681"
    INDEX 01 00:15:23
  TRACK 16 AUDIO
    TITLE "0:"
    INDEX 01 00:16:38
  TRACK 17 AUDIO
    TITLE "10:cjc040_2682"
    INDEX 01 00:17:18
  TRACK 18 AUDIO
    TITLE "0:"
    INDEX 01 00:18:46
  TRACK 19 AUDIO
    TITLE "11:cjc040_2683"
    INDEX 01 00:19:22
  TRACK 20 AUDIO
    TITLE "0:"
    INDEX 01 00:22:21
  TRACK 21 AUDIO
    TITLE "10:cjc040_2684"
    INDEX 01 00:23:03
  TRACK 22 AUDIO
    TITLE "0:"
    INDEX 01 00:24:20
  TRACK 23 AUDIO
    TITLE "11:cjc040_2685"
    INDEX 01 00:24:71
  TRACK 24 AUDIO
    TITLE "0:"
    INDEX 01 00:27:69
  TRACK 25 AUDIO
    TITLE "10:cjc040_2686"
    INDEX 01 00:28:49
  TRACK 26 AUDIO
    TITLE "0:"
    INDEX 01 00:30:06
  TRACK 27 AUDIO
    TITLE "11:cjc040_2687"
    INDEX 01 00:30:61
  TRACK 28 AUDIO
    TITLE "0:"
    INDEX 01 00:33:11
  TRACK 29 AUDIO
    TITLE "10:cjc040_2688"
    INDEX 01 00:33:69
  TRACK 30 AUDIO
    TITLE "0:"
    INDEX 01 00:35:15
  TRACK 31 AUDIO
    TITLE "11:cjc040_2689"
    INDEX 01 00:35:68
  TRACK 32 AUDIO
    TITLE "0:"
    INDEX 01 00:37:08
  TRACK 33 AUDIO
    TITLE "10:cjc040_2690"
    INDEX 01 00:37:61
  TRACK 34 AUDIO
    TITLE "0:"
    INDEX 01 00:39:13
  TRACK 35 AUDIO
    TITLE "11:cjc040_2691"
    INDEX 01 00:39:62
  TRACK 36 AUDIO
    TITLE "0:"
    INDEX 01 00:42:02
  TRACK 37 AUDIO
    TITLE "10:cjc040_2692"
    INDEX 01 00:42:57
  TRACK 38 AUDIO
    TITLE "0:"
    INDEX 01 00:43:68
  TRACK 39 AUDIO
    TITLE "11:cjc040_2693"
    INDEX 01 00:44:50
  TRACK 40 AUDIO
    TITLE "0:"
    INDEX 01 00:46:17
  TRACK 41 AUDIO
    TITLE "10:cjc040_2694"
    INDEX 01 00:46:68
  TRACK 42 AUDIO
    TITLE "0:"
    INDEX 01 00:48:08
  TRACK 43 AUDIO
    TITLE "11:cjc040_2695"
    INDEX 01 00:48:59
  TRACK 44 AUDIO
    TITLE "0:"
    INDEX 01 00:50:66
  TRACK 45 AUDIO
    TITLE "10:cjc040_2696"
    INDEX 01 00:51:48
  TRACK 46 AUDIO
    TITLE "0:"
    INDEX 01 00:53:06
  TRACK 47 AUDIO
    TITLE "11:cjc040_2697"
    INDEX 01 00:53:60
  TRACK 48 AUDIO
    TITLE "0:"
    INDEX 01 00:54:72
  TRACK 49 AUDIO
    TITLE "10:cjc040_2698"
    INDEX 01 00:55:50
  TRACK 50 AUDIO
    TITLE "0:"
    INDEX 01 00:57:05
  TRACK 51 AUDIO
    TITLE "11:cjc040_2699"
    INDEX 01 00:57:56
  TRACK 52 AUDIO
    TITLE "0:"
    INDEX 01 01:00:35
  TRACK 53 AUDIO
    TITLE "10:cjc040_2700"
    INDEX 01 01:01:17
  TRACK 54 AUDIO
    TITLE "0:"
    INDEX 01 01:02:32
  TRACK 55 AUDIO
    TITLE "11:cjc040_2701"
    INDEX 01 01:03:18
  TRACK 56 AUDIO
    TITLE "0:"
    INDEX 01 01:04:74
  TRACK 57 AUDIO
    TITLE "10:cjc040_2702"
    INDEX 01 01:05:50
  TRACK 58 AUDIO
    TITLE "0:"
    INDEX 01 01:07:02
  TRACK 59 AUDIO
    TITLE "11:cjc040_2703"
    INDEX 01 01:07:59
  TRACK 60 AUDIO
    TITLE "0:"
    INDEX 01 01:10:12
  TRACK 61 AUDIO
    TITLE "10:cjc040_2704"
    INDEX 01 01:10:59
  TRACK 62 AUDIO
    TITLE "0:"
    INDEX 01 01:12:03
  TRACK 63 AUDIO
    TITLE "11:cjc040_2705"
    INDEX 01 01:12:60
  TRACK 64 AUDIO
    TITLE "0:"
    INDEX 01 01:13:53
  TRACK 65 AUDIO
    TITLE "10:cjc040_2706"
    INDEX 01 01:14:31
  TRACK 66 AUDIO
    TITLE "0:"
    INDEX 01 01:15:56
  TRACK 67 AUDIO
    TITLE "11:cjc040_2707"
    INDEX 01 01:16:34
  TRACK 68 AUDIO
    TITLE "0:"
    INDEX 01 01:17:39
  TRACK 69 AUDIO
    TITLE "10:cjc040_2708"
    INDEX 01 01:18:19
  TRACK 70 AUDIO
    TITLE "0:"
    INDEX 01 01:19:30
  TRACK 71 AUDIO
    TITLE "11:cjc040_2709"
    INDEX 01 01:20:06
  TRACK 72 AUDIO
    TITLE "0:"
    INDEX 01 01:21:20
